<svg width="16" height="20" viewBox="0 0 16 20" fill="none" xmlns="http://www.w3.org/2000/svg">
<path fill-rule="evenodd" clip-rule="evenodd" d="M8 19.7778C8 19.7778 16 14.4445 16 8.22223C16 6.1005 15.1571 4.06567 13.6569 2.56538C12.1566 1.06508 10.1217 0.222229 8 0.222229C5.87827 0.222229 3.84344 1.06508 2.34315 2.56538C0.842855 4.06567 0 6.1005 0 8.22223C0 14.4445 8 19.7778 8 19.7778ZM10.6676 8.22242C10.6676 9.69518 9.47364 10.8891 8.00088 10.8891C6.52812 10.8891 5.33421 9.69518 5.33421 8.22242C5.33421 6.74966 6.52812 5.55575 8.00088 5.55575C9.47364 5.55575 10.6676 6.74966 10.6676 8.22242Z" fill="#FF1D6C"/>
</svg>
