<svg width="24" height="24" viewBox="0 0 24 24" fill="none" xmlns="http://www.w3.org/2000/svg">
<path d="M19.5902 18.8005L19.5899 18.8002L17.4894 16.6039C18.5988 15.2273 19.267 13.4511 19.267 11.5169C19.267 7.17427 15.8923 3.61423 11.7089 3.61423C7.52548 3.61423 4.15 7.17422 4.15 11.5169C4.15 15.8595 7.52544 19.4203 11.7089 19.4203C13.3801 19.4203 14.9252 18.8501 16.1759 17.889L18.2995 20.1078L18.3 20.1083C18.4754 20.2909 18.709 20.3857 18.9447 20.3857C19.1801 20.3857 19.4157 20.2915 19.5917 20.105C19.9374 19.7419 19.9353 19.1621 19.5902 18.8005ZM5.96031 11.5169C5.96031 8.17117 8.55457 5.47761 11.7089 5.47761C14.8624 5.47761 17.4567 8.17114 17.4567 11.5169C17.4567 14.8627 14.8623 17.5569 11.7089 17.5569C8.55463 17.5569 5.96031 14.8626 5.96031 11.5169Z" fill="white" stroke="white" stroke-width="0.7"/>
</svg>
