<svg width="20" height="16" viewBox="0 0 20 16" fill="none" xmlns="http://www.w3.org/2000/svg">
<path fill-rule="evenodd" clip-rule="evenodd" d="M15.9218 0.267456C17.8943 0.267456 19.4991 1.85639 19.4991 3.80853L19.5 6.1009C19.5 6.27587 19.4302 6.44555 19.3056 6.56927C19.1819 6.69387 19.0131 6.76369 18.8372 6.76369C18.1417 6.76369 17.5761 7.31867 17.5761 8.0009C17.5761 8.68313 18.1417 9.23811 18.8372 9.23811C19.2031 9.23811 19.5 9.53504 19.5 9.9009V12.1915C19.5 14.1436 17.8952 15.7326 15.9227 15.7326H4.0773C2.10484 15.7326 0.5 14.1436 0.5 12.1915V9.9009C0.5 9.53504 0.79693 9.23811 1.16279 9.23811C1.85828 9.23811 2.42386 8.68313 2.42386 8.0009C2.42386 7.33811 1.88126 6.83792 1.16279 6.83792C0.98693 6.83792 0.81814 6.76811 0.694419 6.6435C0.569814 6.51978 0.5 6.35011 0.5 6.17513L0.500884 3.80853C0.500884 1.85639 2.10572 0.267456 4.07819 0.267456H15.9218ZM15.9218 1.59304H12.2968L12.2973 3.29084C12.2973 3.6567 12.0004 3.95363 11.6345 3.95363C11.2687 3.95363 10.9717 3.6567 10.9717 3.29084L10.9712 1.59304H4.07819C2.83656 1.59304 1.82647 2.58722 1.82647 3.80853L1.82558 5.59187C2.94526 5.86671 3.74944 6.82643 3.74944 8.0009C3.74944 9.18685 2.93112 10.1872 1.82558 10.478V12.1915C1.82558 13.4128 2.83567 14.407 4.0773 14.407H10.9712L10.9717 13.0916C10.9717 12.7248 11.2687 12.4288 11.6345 12.4288C12.0004 12.4288 12.2973 12.7248 12.2973 13.0916L12.2968 14.407H15.9227C17.1643 14.407 18.1744 13.4128 18.1744 12.1915V10.478C17.0689 10.1872 16.2506 9.18685 16.2506 8.0009C16.2506 6.81406 17.068 5.81457 18.1744 5.52383L18.1735 3.80853C18.1735 2.58722 17.1634 1.59304 15.9218 1.59304ZM11.6345 5.1319C12.0004 5.1319 12.2973 5.42883 12.2973 5.79469V10.0551C12.2973 10.421 12.0004 10.7179 11.6345 10.7179C11.2687 10.7179 10.9717 10.421 10.9717 10.0551V5.79469C10.9717 5.42883 11.2687 5.1319 11.6345 5.1319Z" fill="#FF1D6C"/>
</svg>
