<svg width="15" height="15" viewBox="0 0 15 15" fill="none" xmlns="http://www.w3.org/2000/svg">
<mask id="path-1-outside-1_119_1651" maskUnits="userSpaceOnUse" x="0.581299" y="0.581299" width="14" height="14" fill="black">
<rect fill="white" x="0.581299" y="0.581299" width="14" height="14"/>
<path fill-rule="evenodd" clip-rule="evenodd" d="M13.1258 3.28841C13.5163 2.89788 13.5163 2.26472 13.1258 1.87419C12.7353 1.48367 12.1021 1.48367 11.7116 1.87419L7.5 6.08578L3.28841 1.87419C2.89788 1.48367 2.26472 1.48367 1.87419 1.87419C1.48367 2.26472 1.48367 2.89788 1.87419 3.28841L6.08578 7.5L1.87419 11.7116C1.48367 12.1021 1.48367 12.7353 1.87419 13.1258C2.26472 13.5163 2.89788 13.5163 3.28841 13.1258L7.5 8.91421L11.7116 13.1258C12.1021 13.5163 12.7353 13.5163 13.1258 13.1258C13.5163 12.7353 13.5163 12.1021 13.1258 11.7116L8.91421 7.5L13.1258 3.28841Z"/>
</mask>
<path fill-rule="evenodd" clip-rule="evenodd" d="M13.1258 3.28841C13.5163 2.89788 13.5163 2.26472 13.1258 1.87419C12.7353 1.48367 12.1021 1.48367 11.7116 1.87419L7.5 6.08578L3.28841 1.87419C2.89788 1.48367 2.26472 1.48367 1.87419 1.87419C1.48367 2.26472 1.48367 2.89788 1.87419 3.28841L6.08578 7.5L1.87419 11.7116C1.48367 12.1021 1.48367 12.7353 1.87419 13.1258C2.26472 13.5163 2.89788 13.5163 3.28841 13.1258L7.5 8.91421L11.7116 13.1258C12.1021 13.5163 12.7353 13.5163 13.1258 13.1258C13.5163 12.7353 13.5163 12.1021 13.1258 11.7116L8.91421 7.5L13.1258 3.28841Z" fill="white"/>
<path d="M13.1258 1.87419L12.4187 2.5813L12.4187 2.5813L13.1258 1.87419ZM13.1258 3.28841L12.4187 2.5813V2.5813L13.1258 3.28841ZM11.7116 1.87419L12.4187 2.5813L12.4187 2.5813L11.7116 1.87419ZM7.5 6.08578L6.79289 6.79289C6.98043 6.98043 7.23478 7.08578 7.5 7.08578C7.76521 7.08578 8.01957 6.98043 8.2071 6.79289L7.5 6.08578ZM3.28841 1.87419L3.99551 1.16709V1.16709L3.28841 1.87419ZM1.87419 1.87419L2.5813 2.5813L2.5813 2.5813L1.87419 1.87419ZM1.87419 3.28841L1.16709 3.99551H1.16709L1.87419 3.28841ZM6.08578 7.5L6.79289 8.2071C6.98043 8.01957 7.08578 7.76521 7.08578 7.5C7.08578 7.23478 6.98043 6.98043 6.79289 6.79289L6.08578 7.5ZM1.87419 11.7116L2.5813 12.4187L2.5813 12.4187L1.87419 11.7116ZM1.87419 13.1258L2.5813 12.4187L2.5813 12.4187L1.87419 13.1258ZM3.28841 13.1258L2.5813 12.4187H2.5813L3.28841 13.1258ZM7.5 8.91421L8.2071 8.2071C8.01957 8.01957 7.76521 7.91421 7.5 7.91421C7.23478 7.91421 6.98043 8.01957 6.79289 8.2071L7.5 8.91421ZM11.7116 13.1258L12.4187 12.4187L12.4187 12.4187L11.7116 13.1258ZM13.1258 13.1258L12.4187 12.4187L12.4187 12.4187L13.1258 13.1258ZM13.1258 11.7116L12.4187 12.4187L12.4187 12.4187L13.1258 11.7116ZM8.91421 7.5L8.2071 6.79289C8.01957 6.98043 7.91421 7.23478 7.91421 7.5C7.91421 7.76521 8.01957 8.01957 8.2071 8.2071L8.91421 7.5ZM12.4187 2.5813V2.5813L13.8329 3.99551C14.614 3.21446 14.614 1.94813 13.8329 1.16708L12.4187 2.5813ZM12.4187 2.5813H12.4187L13.8329 1.16709C13.0519 0.386037 11.7855 0.386037 11.0045 1.16709L12.4187 2.5813ZM8.2071 6.79289L12.4187 2.5813L11.0045 1.16709L6.79289 5.37868L8.2071 6.79289ZM2.5813 2.5813L6.79289 6.79289L8.2071 5.37868L3.99551 1.16709L2.5813 2.5813ZM2.5813 2.5813V2.5813L3.99551 1.16709C3.21446 0.386037 1.94813 0.386037 1.16709 1.16709L2.5813 2.5813ZM2.5813 2.5813H2.5813L1.16709 1.16709C0.386037 1.94813 0.386037 3.21446 1.16709 3.99551L2.5813 2.5813ZM6.79289 6.79289L2.5813 2.5813L1.16709 3.99551L5.37868 8.2071L6.79289 6.79289ZM2.5813 12.4187L6.79289 8.2071L5.37868 6.79289L1.16709 11.0045L2.5813 12.4187ZM2.5813 12.4187V12.4187L1.16709 11.0045C0.386037 11.7855 0.386037 13.0519 1.16709 13.8329L2.5813 12.4187ZM2.5813 12.4187H2.5813L1.16708 13.8329C1.94813 14.614 3.21446 14.614 3.99551 13.8329L2.5813 12.4187ZM6.79289 8.2071L2.5813 12.4187L3.99551 13.8329L8.2071 9.62132L6.79289 8.2071ZM12.4187 12.4187L8.2071 8.2071L6.79289 9.62132L11.0045 13.8329L12.4187 12.4187ZM12.4187 12.4187H12.4187L11.0045 13.8329C11.7855 14.614 13.0519 14.614 13.8329 13.8329L12.4187 12.4187ZM12.4187 12.4187V12.4187L13.8329 13.8329C14.614 13.0519 14.614 11.7855 13.8329 11.0045L12.4187 12.4187ZM8.2071 8.2071L12.4187 12.4187L13.8329 11.0045L9.62132 6.79289L8.2071 8.2071ZM12.4187 2.5813L8.2071 6.79289L9.62132 8.2071L13.8329 3.99551L12.4187 2.5813Z" fill="white" mask="url(#path-1-outside-1_119_1651)"/>
</svg>
